<mxfile host="app.diagrams.net" modified="2023-05-13T15:11:55.781Z" agent="Mozilla/5.0 (Windows NT 10.0; Win64; x64) AppleWebKit/537.36 (KHTML, like Gecko) Chrome/113.0.0.0 Safari/537.36" etag="zi9EyGC4VhMhACpuJRVx" version="21.3.0" type="github">
  <diagram name="Página-1" id="_L_9g_dcv_8VvoCaPqL7">
    <mxGraphModel dx="1049" dy="619" grid="1" gridSize="10" guides="1" tooltips="1" connect="1" arrows="1" fold="1" page="1" pageScale="1" pageWidth="827" pageHeight="1169" math="0" shadow="0">
      <root>
        <mxCell id="0" />
        <mxCell id="1" parent="0" />
        <mxCell id="jGD4ZGNHSOzFNdqoRaho-16" style="edgeStyle=orthogonalEdgeStyle;rounded=0;orthogonalLoop=1;jettySize=auto;html=1;exitX=0.5;exitY=0;exitDx=0;exitDy=0;entryX=0.5;entryY=1;entryDx=0;entryDy=0;strokeColor=#788AA3;fontColor=#46495D;fillColor=#B2C9AB;endArrow=none;endFill=0;" edge="1" parent="1" source="jGD4ZGNHSOzFNdqoRaho-1" target="jGD4ZGNHSOzFNdqoRaho-12">
          <mxGeometry relative="1" as="geometry" />
        </mxCell>
        <mxCell id="jGD4ZGNHSOzFNdqoRaho-17" style="edgeStyle=orthogonalEdgeStyle;rounded=0;orthogonalLoop=1;jettySize=auto;html=1;exitX=0;exitY=0;exitDx=0;exitDy=0;entryX=1;entryY=0.5;entryDx=0;entryDy=0;strokeColor=#788AA3;fontColor=#46495D;fillColor=#B2C9AB;endArrow=none;endFill=0;" edge="1" parent="1" source="jGD4ZGNHSOzFNdqoRaho-1" target="jGD4ZGNHSOzFNdqoRaho-11">
          <mxGeometry relative="1" as="geometry" />
        </mxCell>
        <mxCell id="jGD4ZGNHSOzFNdqoRaho-18" style="edgeStyle=orthogonalEdgeStyle;rounded=0;orthogonalLoop=1;jettySize=auto;html=1;exitX=0;exitY=0.25;exitDx=0;exitDy=0;entryX=1;entryY=0.5;entryDx=0;entryDy=0;strokeColor=#788AA3;fontColor=#46495D;fillColor=#B2C9AB;endArrow=none;endFill=0;" edge="1" parent="1" source="jGD4ZGNHSOzFNdqoRaho-1" target="jGD4ZGNHSOzFNdqoRaho-7">
          <mxGeometry relative="1" as="geometry" />
        </mxCell>
        <mxCell id="jGD4ZGNHSOzFNdqoRaho-19" style="edgeStyle=orthogonalEdgeStyle;rounded=0;orthogonalLoop=1;jettySize=auto;html=1;exitX=0;exitY=0.5;exitDx=0;exitDy=0;entryX=1;entryY=0.5;entryDx=0;entryDy=0;strokeColor=#788AA3;fontColor=#46495D;fillColor=#B2C9AB;endArrow=none;endFill=0;" edge="1" parent="1" source="jGD4ZGNHSOzFNdqoRaho-1" target="jGD4ZGNHSOzFNdqoRaho-6">
          <mxGeometry relative="1" as="geometry" />
        </mxCell>
        <mxCell id="jGD4ZGNHSOzFNdqoRaho-20" style="edgeStyle=orthogonalEdgeStyle;rounded=0;orthogonalLoop=1;jettySize=auto;html=1;exitX=0;exitY=0.75;exitDx=0;exitDy=0;entryX=1;entryY=0.5;entryDx=0;entryDy=0;strokeColor=#788AA3;fontColor=#46495D;fillColor=#B2C9AB;endArrow=none;endFill=0;" edge="1" parent="1" source="jGD4ZGNHSOzFNdqoRaho-1" target="jGD4ZGNHSOzFNdqoRaho-8">
          <mxGeometry relative="1" as="geometry" />
        </mxCell>
        <mxCell id="jGD4ZGNHSOzFNdqoRaho-21" style="edgeStyle=orthogonalEdgeStyle;rounded=0;orthogonalLoop=1;jettySize=auto;html=1;exitX=0;exitY=1;exitDx=0;exitDy=0;entryX=1;entryY=0.5;entryDx=0;entryDy=0;strokeColor=#788AA3;fontColor=#46495D;fillColor=#B2C9AB;endArrow=none;endFill=0;" edge="1" parent="1" source="jGD4ZGNHSOzFNdqoRaho-1" target="jGD4ZGNHSOzFNdqoRaho-9">
          <mxGeometry relative="1" as="geometry" />
        </mxCell>
        <mxCell id="jGD4ZGNHSOzFNdqoRaho-1" value="Garçom" style="rounded=1;arcSize=10;whiteSpace=wrap;html=1;align=center;fontStyle=1;fontFamily=Helvetica;labelBackgroundColor=none;fillColor=#B2C9AB;strokeColor=#788AA3;fontColor=#46495D;fontSize=12;" vertex="1" parent="1">
          <mxGeometry x="180" y="200" width="110" height="40" as="geometry" />
        </mxCell>
        <mxCell id="jGD4ZGNHSOzFNdqoRaho-6" value="Registro Funcionário" style="ellipse;whiteSpace=wrap;html=1;align=center;strokeColor=#788AA3;fontColor=#46495D;fillColor=#B2C9AB;fontStyle=4" vertex="1" parent="1">
          <mxGeometry x="10" y="200" width="100" height="40" as="geometry" />
        </mxCell>
        <mxCell id="jGD4ZGNHSOzFNdqoRaho-7" value="Nome" style="ellipse;whiteSpace=wrap;html=1;align=center;strokeColor=#788AA3;fontColor=#46495D;fillColor=#B2C9AB;" vertex="1" parent="1">
          <mxGeometry x="10" y="150" width="100" height="40" as="geometry" />
        </mxCell>
        <mxCell id="jGD4ZGNHSOzFNdqoRaho-8" value="RG" style="ellipse;whiteSpace=wrap;html=1;align=center;strokeColor=#788AA3;fontColor=#46495D;fillColor=#B2C9AB;" vertex="1" parent="1">
          <mxGeometry x="10" y="250" width="100" height="40" as="geometry" />
        </mxCell>
        <mxCell id="jGD4ZGNHSOzFNdqoRaho-9" value="CPF" style="ellipse;whiteSpace=wrap;html=1;align=center;strokeColor=#788AA3;fontColor=#46495D;fillColor=#B2C9AB;" vertex="1" parent="1">
          <mxGeometry x="10" y="300" width="100" height="40" as="geometry" />
        </mxCell>
        <mxCell id="jGD4ZGNHSOzFNdqoRaho-11" value="Telefones" style="ellipse;shape=doubleEllipse;margin=3;whiteSpace=wrap;html=1;align=center;strokeColor=#788AA3;fontColor=#46495D;fillColor=#B2C9AB;" vertex="1" parent="1">
          <mxGeometry x="10" y="100" width="100" height="40" as="geometry" />
        </mxCell>
        <mxCell id="jGD4ZGNHSOzFNdqoRaho-22" style="edgeStyle=orthogonalEdgeStyle;rounded=0;orthogonalLoop=1;jettySize=auto;html=1;exitX=0.5;exitY=0;exitDx=0;exitDy=0;entryX=0.5;entryY=1;entryDx=0;entryDy=0;strokeColor=#788AA3;fontColor=#46495D;fillColor=#B2C9AB;endArrow=none;endFill=0;" edge="1" parent="1" source="jGD4ZGNHSOzFNdqoRaho-12" target="jGD4ZGNHSOzFNdqoRaho-14">
          <mxGeometry relative="1" as="geometry" />
        </mxCell>
        <mxCell id="jGD4ZGNHSOzFNdqoRaho-23" style="edgeStyle=orthogonalEdgeStyle;rounded=0;orthogonalLoop=1;jettySize=auto;html=1;exitX=0;exitY=0;exitDx=0;exitDy=0;entryX=0.5;entryY=1;entryDx=0;entryDy=0;strokeColor=#788AA3;fontColor=#46495D;fillColor=#B2C9AB;endArrow=none;endFill=0;" edge="1" parent="1" source="jGD4ZGNHSOzFNdqoRaho-12" target="jGD4ZGNHSOzFNdqoRaho-15">
          <mxGeometry relative="1" as="geometry" />
        </mxCell>
        <mxCell id="jGD4ZGNHSOzFNdqoRaho-24" style="edgeStyle=orthogonalEdgeStyle;rounded=0;orthogonalLoop=1;jettySize=auto;html=1;exitX=1;exitY=0;exitDx=0;exitDy=0;entryX=0.5;entryY=1;entryDx=0;entryDy=0;strokeColor=#788AA3;fontColor=#46495D;fillColor=#B2C9AB;endArrow=none;endFill=0;" edge="1" parent="1" source="jGD4ZGNHSOzFNdqoRaho-12" target="jGD4ZGNHSOzFNdqoRaho-13">
          <mxGeometry relative="1" as="geometry" />
        </mxCell>
        <mxCell id="jGD4ZGNHSOzFNdqoRaho-12" value="Endereço" style="ellipse;whiteSpace=wrap;html=1;align=center;strokeColor=#788AA3;fontColor=#46495D;fillColor=#B2C9AB;" vertex="1" parent="1">
          <mxGeometry x="185" y="80" width="100" height="40" as="geometry" />
        </mxCell>
        <mxCell id="jGD4ZGNHSOzFNdqoRaho-13" value="CEP" style="ellipse;whiteSpace=wrap;html=1;align=center;strokeColor=#788AA3;fontColor=#46495D;fillColor=#B2C9AB;" vertex="1" parent="1">
          <mxGeometry x="295" y="10" width="100" height="40" as="geometry" />
        </mxCell>
        <mxCell id="jGD4ZGNHSOzFNdqoRaho-14" value="Número" style="ellipse;whiteSpace=wrap;html=1;align=center;strokeColor=#788AA3;fontColor=#46495D;fillColor=#B2C9AB;" vertex="1" parent="1">
          <mxGeometry x="185" y="10" width="100" height="40" as="geometry" />
        </mxCell>
        <mxCell id="jGD4ZGNHSOzFNdqoRaho-15" value="Complementos" style="ellipse;whiteSpace=wrap;html=1;align=center;strokeColor=#788AA3;fontColor=#46495D;fillColor=#B2C9AB;" vertex="1" parent="1">
          <mxGeometry x="75" y="10" width="100" height="40" as="geometry" />
        </mxCell>
      </root>
    </mxGraphModel>
  </diagram>
</mxfile>
